<?xml version="1.0" standalone="no"?>
<!DOCTYPE svg PUBLIC "-//W3C//DTD SVG 20010904//EN"
 "http://www.w3.org/TR/2001/REC-SVG-20010904/DTD/svg10.dtd">
<svg version="1.0" xmlns="http://www.w3.org/2000/svg"
 width="1280.000000pt" height="813.000000pt" viewBox="0 0 1280.000000 813.000000"
 preserveAspectRatio="xMidYMid meet">
<metadata>
Created by potrace 1.15, written by Peter Selinger 2001-2017
</metadata>
<g transform="translate(0.000000,813.000000) scale(0.100000,-0.100000)"
fill="#000000" stroke="none">
<path d="M8445 8123 c-234 -10 -625 -52 -880 -94 -539 -89 -900 -184 -1922
-505 -986 -309 -1862 -538 -2674 -698 l-266 -52 -54 -55 c-103 -103 -246 -191
-444 -275 -61 -25 -282 -104 -493 -175 -210 -71 -433 -152 -495 -180 -96 -45
-125 -53 -202 -61 -444 -42 -601 -85 -781 -213 -102 -73 -204 -209 -204 -271
0 -39 47 -113 99 -155 l42 -33 -70 -70 c-89 -90 -96 -113 -95 -311 1 -158 22
-288 61 -371 16 -33 24 -40 58 -45 22 -3 66 -14 98 -23 37 -11 69 -15 90 -10
41 9 153 120 194 195 17 30 48 70 69 89 49 42 136 82 171 78 26 -3 28 -7 31
-53 13 -202 -190 -793 -302 -879 -26 -19 -39 -40 -47 -70 -7 -29 -24 -56 -49
-80 -40 -38 -44 -46 -54 -107 l-6 -36 -74 -12 c-76 -12 -181 -56 -205 -84 -10
-13 -12 -39 -9 -101 4 -71 10 -95 39 -152 40 -80 145 -191 238 -252 l63 -42
204 0 c124 0 205 4 209 10 13 22 24 9 13 -16 -9 -20 -9 -30 1 -45 8 -14 10
-41 5 -88 -5 -55 -3 -69 10 -80 43 -36 258 -16 595 55 225 47 213 46 275 30
43 -12 70 -13 117 -5 82 13 112 27 192 88 l69 51 695 61 696 61 39 -39 c89
-85 146 -190 254 -466 95 -243 143 -339 211 -424 l55 -68 -5 -165 c-10 -289
-82 -631 -172 -810 -16 -33 -56 -83 -99 -125 -65 -64 -190 -244 -203 -294 -6
-25 69 -41 197 -41 171 0 286 32 309 87 10 25 18 30 47 30 41 0 83 28 104 69
8 16 38 70 68 120 65 112 135 282 163 401 26 106 29 117 32 112 8 -11 -13
-373 -27 -467 -25 -171 -49 -241 -126 -372 -119 -201 -162 -319 -140 -385 13
-40 65 -88 114 -106 l35 -13 -27 -47 -27 -48 30 -31 c81 -84 282 -76 528 22
54 21 85 40 102 62 58 76 149 293 170 407 5 29 13 38 41 48 40 15 139 102 159
142 8 15 15 50 15 76 0 26 9 91 20 143 24 117 26 286 5 520 -17 194 -19 407
-5 517 15 106 84 356 131 471 21 52 63 139 93 194 54 97 55 103 70 226 8 70
20 185 26 256 14 169 28 222 111 401 111 240 162 275 393 275 68 0 156 7 201
15 139 27 377 34 835 22 l435 -10 55 -27 c30 -15 114 -50 186 -79 153 -61 180
-79 234 -154 44 -61 113 -112 174 -128 97 -26 253 24 356 116 71 63 107 78
317 130 274 68 364 106 465 194 39 35 60 44 137 62 l91 22 38 -35 c22 -20 44
-37 51 -39 8 -3 8 -19 -1 -64 -18 -87 -17 -454 1 -525 8 -30 49 -127 92 -215
95 -194 132 -294 159 -427 24 -118 28 -283 10 -403 -23 -152 -100 -342 -188
-469 -22 -31 -45 -69 -51 -85 -8 -17 -48 -55 -101 -95 -95 -71 -280 -249 -280
-269 0 -23 30 -56 70 -78 l40 -23 -22 -23 c-19 -20 -20 -26 -9 -46 29 -54 129
-98 271 -117 104 -14 134 -2 192 78 24 33 58 67 76 76 18 9 75 57 126 106 51
50 95 90 98 90 3 0 8 -10 11 -21 5 -17 11 -20 29 -15 13 4 55 13 94 20 39 7
85 21 101 31 32 19 116 145 159 239 16 35 39 122 56 210 16 83 38 198 49 255
19 101 66 257 90 303 7 13 36 49 66 81 83 91 139 222 158 372 12 89 10 87 65
50 27 -18 66 -36 87 -40 l38 -6 34 -281 c68 -567 59 -838 -36 -1173 -42 -145
-139 -365 -163 -365 -11 0 -64 -123 -89 -207 l-21 -72 42 -85 43 -86 100 -50
c143 -72 226 -91 421 -97 l160 -5 26 31 c40 47 70 136 75 221 2 41 11 108 20
148 15 61 20 72 38 72 53 0 128 32 169 73 65 66 80 126 72 290 -8 146 -21 234
-66 440 -95 432 -99 565 -23 781 163 467 197 583 232 806 25 157 41 395 41
607 l0 163 69 90 c119 158 223 387 265 585 102 483 -35 1117 -367 1702 -20 35
-32 65 -27 68 5 3 38 -18 72 -47 111 -94 225 -123 326 -83 62 25 144 118 166
190 51 161 -61 387 -254 515 -72 48 -205 74 -343 67 -129 -5 -198 -26 -287
-85 l-57 -39 -107 118 c-213 236 -472 433 -668 509 -42 16 -116 36 -165 44
-48 9 -131 31 -183 51 -111 42 -377 124 -517 159 -545 137 -1151 195 -1758
169z m677 -33 c585 -39 1049 -134 1613 -330 61 -21 144 -43 185 -49 344 -53
876 -532 1200 -1083 29 -48 55 -88 59 -90 11 -4 123 -209 166 -304 285 -619
347 -1178 184 -1640 -52 -147 -125 -278 -230 -410 l-49 -62 0 -198 c0 -482
-58 -803 -225 -1253 -81 -217 -95 -281 -95 -430 0 -136 15 -239 73 -506 39
-179 55 -274 59 -354 l3 -54 -43 -15 c-24 -8 -60 -32 -81 -53 -55 -57 -71 -47
-71 45 0 78 -4 86 -79 174 -73 86 -82 66 -21 -48 35 -67 40 -83 40 -145 0 -73
17 -115 46 -115 19 0 18 -12 -9 -89 -13 -36 -32 -99 -42 -139 -23 -87 -5 -84
-263 -42 -101 16 -201 30 -223 30 -41 0 -64 12 -186 102 l-53 39 30 59 c93
184 157 400 186 623 24 192 14 545 -24 840 l-28 217 111 1 c187 1 265 41 103
53 -103 7 -201 31 -219 52 -6 8 -23 14 -38 14 -35 0 -121 42 -147 71 -46 51
-64 93 -64 149 1 111 18 200 52 261 18 32 29 62 24 66 -11 11 -86 -74 -120
-138 -16 -30 -30 -56 -32 -58 -2 -2 -47 36 -101 86 -54 49 -188 167 -298 263
-367 320 -440 401 -504 562 -38 97 -74 234 -66 258 10 33 122 136 184 168 61
33 167 60 324 83 57 8 87 17 87 25 0 15 -16 18 -177 40 l-123 16 -107 -75
c-60 -40 -146 -100 -193 -132 -47 -32 -107 -78 -135 -103 -85 -76 -283 -201
-440 -277 -313 -152 -688 -253 -1105 -297 -125 -13 -588 -16 -1380 -10 -285 2
-376 -1 -460 -14 -58 -8 -179 -19 -270 -23 -176 -7 -232 -22 -289 -74 l-24
-22 6 25 c3 14 11 77 17 140 12 119 3 278 -23 385 -12 51 -262 545 -297 587
-18 22 -19 22 -20 3 0 -11 46 -153 101 -315 149 -434 143 -406 143 -605 1
-213 -25 -367 -84 -515 -50 -123 -56 -152 -75 -375 -23 -280 -28 -298 -105
-448 -37 -73 -78 -160 -91 -194 -13 -35 -26 -63 -30 -63 -3 0 -15 18 -28 40
-66 117 -153 189 -232 193 -63 3 -59 -19 14 -79 34 -28 76 -69 94 -92 68 -89
99 -233 76 -355 -24 -132 -27 -354 -8 -592 19 -242 16 -474 -8 -560 -12 -44
-17 -50 -38 -48 -34 4 -159 -19 -165 -29 -3 -5 -7 -57 -7 -116 l-2 -107 -245
-82 c-135 -45 -248 -79 -251 -75 -6 7 -33 143 -44 225 -4 28 -11 47 -19 47
-11 0 -103 45 -114 55 -1 1 6 36 18 76 37 137 51 274 57 559 l6 275 -52 97
c-95 177 -146 362 -176 644 -30 277 -48 364 -103 488 -33 75 -33 80 -16 93 23
17 41 16 119 -3 36 -9 72 -14 80 -10 14 5 14 9 0 35 -19 38 -91 81 -136 81
-28 0 -47 12 -107 68 -69 63 -73 70 -83 127 -15 81 -4 216 21 264 24 48 68 86
117 101 48 16 63 28 63 51 0 36 -27 49 -88 43 -36 -4 -71 -1 -96 8 -36 12 -40
18 -60 79 -25 77 -72 142 -157 217 -90 78 -103 70 -40 -25 36 -54 55 -100 93
-238 12 -42 20 -54 56 -73 51 -29 52 -41 11 -133 -39 -91 -50 -236 -25 -342
22 -92 21 -97 -12 -97 -33 0 -95 60 -168 164 -116 166 -221 218 -474 233 -88
5 -97 4 -117 -16 -25 -24 -30 -63 -10 -78 6 -6 63 -13 125 -16 155 -9 231 -36
318 -114 92 -82 186 -153 203 -153 8 0 12 -2 9 -5 -5 -5 -428 -44 -1253 -116
l-480 -41 -34 -30 c-109 -96 -228 -133 -329 -103 -49 15 -54 19 -92 88 -30 55
-40 83 -40 119 0 61 -5 72 -46 103 -44 33 -61 24 -36 -18 12 -19 22 -62 27
-107 6 -64 12 -82 42 -123 26 -35 33 -51 24 -56 -12 -8 -389 -84 -478 -97
l-43 -6 20 44 c24 53 28 158 6 158 -8 0 -17 -8 -19 -17 -3 -10 -10 -39 -17
-65 -7 -26 -28 -65 -47 -88 -29 -33 -41 -40 -71 -40 -20 0 -48 3 -61 7 -22 6
-23 9 -17 68 3 35 2 74 -4 89 -9 24 -6 27 30 46 21 11 62 48 92 82 96 112 107
121 123 108 16 -14 18 -12 33 50 6 24 23 47 59 75 27 22 60 55 73 74 l24 33
-43 40 c-51 48 -73 40 -41 -14 l20 -35 -49 -47 c-49 -45 -59 -50 -92 -47 -10
1 -30 -28 -58 -86 -24 -48 -50 -97 -59 -107 -10 -11 -54 -36 -98 -58 l-82 -38
-192 0 -192 0 -56 37 c-84 56 -182 159 -221 233 -29 55 -36 78 -39 146 l-4 81
33 21 c45 27 121 51 193 60 l59 7 12 59 c10 48 19 65 53 98 24 22 42 49 42 61
1 30 19 60 58 92 64 53 204 388 268 640 21 85 28 134 28 217 l1 108 85 0 c254
-1 433 -46 537 -135 46 -39 53 -42 53 -21 0 40 -160 131 -270 154 -126 27
-402 42 -414 23 -3 -4 -30 -11 -59 -14 -99 -10 -194 -77 -250 -175 -39 -69
-144 -179 -179 -187 -17 -5 -53 1 -94 14 -37 12 -77 21 -90 21 -17 0 -26 10
-38 42 -46 123 -68 356 -46 488 13 74 13 76 88 152 73 76 79 79 201 127 69 27
171 63 225 80 191 61 202 62 609 55 316 -6 369 -5 365 7 -3 10 -35 16 -125 21
-219 12 -365 51 -401 106 -27 41 -18 89 38 213 l53 117 76 38 c105 51 278 115
606 224 500 164 711 266 886 428 l66 61 254 50 c752 147 1668 384 2519 651
987 310 1299 398 1720 485 388 81 869 144 1205 158 180 8 558 6 697 -3z m3203
-925 c71 -9 141 -31 190 -59 68 -40 169 -155 212 -242 35 -71 38 -85 38 -158
0 -90 -12 -120 -72 -187 -105 -116 -251 -109 -391 18 l-52 48 -7 101 c-11 178
16 209 173 205 30 -1 43 -6 48 -18 3 -10 17 -33 31 -52 29 -39 32 -72 9 -107
-23 -34 -6 -51 32 -33 15 8 32 21 37 30 15 24 -17 103 -59 144 -19 19 -34 38
-34 43 0 5 -11 19 -25 32 -35 32 -126 40 -180 14 -49 -23 -92 -84 -101 -142
-6 -43 -1 -71 43 -204 3 -12 0 -18 -9 -18 -7 0 -45 48 -83 108 -38 59 -111
162 -162 230 -51 67 -93 127 -93 131 0 15 89 69 148 91 58 22 176 40 227 34
17 -2 53 -6 80 -9z m24 -245 c-30 -4 -67 -15 -82 -24 -26 -18 -53 -76 -60
-131 -3 -24 -4 -22 -6 10 -3 88 65 156 153 154 l51 -2 -56 -7z m-11356 -997
c-24 -38 -76 -131 -114 -207 -38 -76 -70 -141 -72 -142 -2 -2 -37 -10 -78 -18
-88 -17 -227 -61 -403 -127 l-130 -49 -37 26 c-38 26 -81 81 -93 121 -14 45
63 163 156 240 153 125 458 217 740 222 l76 1 -45 -67z m-14 -107 c-26 -60
-27 -130 -2 -164 18 -24 59 -50 123 -77 32 -14 25 -14 -105 -9 -77 3 -142 8
-144 10 -2 2 28 70 68 150 40 80 75 144 77 141 2 -2 -5 -25 -17 -51z m9409
-1085 c22 -6 11 -10 -53 -20 -166 -27 -260 -72 -356 -173 -50 -52 -62 -58 -57
-28 2 12 62 60 163 130 l160 111 58 -6 c32 -4 71 -10 85 -14z m-4678 -216
c109 -210 122 -260 123 -475 1 -146 -13 -266 -39 -329 -19 -47 -26 -35 -14 25
18 90 24 295 11 384 -10 70 -112 394 -170 543 -24 62 2 18 89 -148z m4180 -53
c0 -15 4 -32 9 -37 5 -6 24 -59 41 -120 18 -60 45 -139 61 -174 16 -35 29 -65
29 -66 0 -2 -19 1 -42 7 -69 15 -101 3 -178 -67 -38 -36 -76 -65 -83 -65 -7 0
-28 16 -47 35 -19 19 -39 35 -46 35 -7 0 -53 -9 -104 -21 -78 -18 -98 -27
-143 -65 -102 -88 -190 -125 -446 -188 -211 -53 -276 -79 -341 -140 -61 -57
-166 -107 -240 -113 -102 -10 -179 31 -255 133 -53 71 -96 97 -280 169 -66 26
-123 50 -127 54 -4 3 73 7 170 8 803 11 1469 211 1932 582 41 34 78 61 83 61
4 0 7 -13 7 -28z m-5975 -534 c14 -27 29 -65 33 -85 12 -56 56 -78 155 -78 46
0 77 -4 76 -10 0 -5 -31 -25 -69 -43 -84 -40 -112 -81 -131 -186 -13 -79 -6
-199 14 -249 8 -18 47 -63 88 -100 64 -58 79 -67 113 -67 36 0 106 -32 106
-49 0 -4 -31 -1 -69 7 -61 13 -72 13 -99 -1 l-31 -15 -74 81 c-42 46 -80 99
-88 122 -9 26 -14 84 -14 165 0 120 1 128 34 208 41 98 37 125 -22 157 -29 15
-40 29 -48 60 -14 49 -48 165 -56 185 -11 30 58 -56 82 -102z m6126 101 c9 0
37 -26 62 -58 39 -51 210 -207 602 -551 66 -58 150 -134 187 -169 67 -62 68
-64 68 -115 0 -34 7 -62 21 -85 25 -41 22 -97 -12 -240 -27 -116 -67 -194
-142 -278 -57 -63 -68 -82 -95 -165 -42 -128 -48 -150 -87 -370 -41 -226 -62
-295 -116 -392 -23 -39 -42 -73 -44 -75 -3 -2 -16 11 -30 28 -23 27 -33 31
-75 31 -27 0 -52 6 -58 13 -25 30 -24 92 2 201 14 59 26 114 26 122 0 26 -26
14 -39 -19 -36 -91 -61 -173 -71 -240 -12 -71 -11 -76 10 -104 l21 -30 -126
-124 c-146 -144 -199 -183 -235 -176 -14 3 -79 13 -145 22 -147 20 -165 26
-165 60 0 34 12 55 76 141 47 61 54 76 54 116 0 65 22 118 92 227 74 115 128
233 163 361 21 76 28 125 32 245 9 250 -28 396 -172 695 -55 113 -90 200 -100
245 -19 92 -20 351 -1 470 15 90 15 90 69 140 73 69 111 87 167 80 25 -3 52
-6 61 -6z m-6703 -478 c34 -5 97 -20 140 -32 70 -21 83 -29 142 -89 36 -36 85
-94 109 -129 42 -61 42 -63 15 -47 -16 10 -72 55 -124 102 -132 116 -232 153
-422 154 -59 0 -73 11 -46 38 14 14 98 15 186 3z m7633 -272 c-3 -47 -4 -50
-19 -35 -15 14 -14 19 1 51 9 19 18 35 19 35 2 0 1 -23 -1 -51z m-9885 15 c-3
-9 -6 -21 -6 -29 0 -7 -8 -15 -17 -19 -10 -3 -24 -9 -31 -12 -9 -4 -6 8 7 35
12 23 29 41 37 41 11 0 14 -5 10 -16z m2775 -135 c15 -7 29 -7 52 1 31 11 33
10 91 -52 32 -35 68 -79 81 -98 35 -56 86 -261 96 -385 23 -287 124 -662 232
-856 l31 -57 -12 -93 c-20 -163 -79 -355 -152 -500 -58 -116 -84 -147 -115
-141 -29 5 -29 2 -10 71 15 59 13 71 -15 71 -23 0 -30 -19 -30 -90 0 -42 -4
-59 -15 -64 -8 -3 -32 -43 -54 -90 -28 -62 -47 -88 -67 -99 -45 -23 -127 -37
-213 -37 l-78 0 18 82 c10 46 19 89 19 96 0 32 -30 4 -84 -78 -32 -50 -61 -88
-63 -86 -3 2 1 15 8 28 25 47 137 216 148 222 18 12 110 -24 147 -56 72 -64
62 22 -11 89 l-46 42 30 53 c99 178 184 575 185 868 l1 165 -52 64 c-71 87
-106 158 -213 426 -100 253 -149 347 -223 430 -27 31 -48 57 -46 59 6 5 213
22 282 24 32 1 67 -3 78 -9z m-2995 -104 c-11 -8 -22 -12 -25 -9 -6 6 19 24
34 24 6 -1 1 -7 -9 -15z m674 -15 c0 -5 -2 -10 -4 -10 -3 0 -8 5 -11 10 -3 6
-1 10 4 10 6 0 11 -4 11 -10z m9814 -195 c47 -10 26 -14 -46 -8 -56 5 -68 9
-68 23 0 16 4 16 43 4 23 -7 55 -15 71 -19z m-6152 -293 c40 -26 98 -97 141
-173 23 -41 25 -50 15 -80 -21 -65 -21 -65 -25 -39 -17 108 -58 183 -142 263
-34 32 -61 60 -61 62 0 8 34 -8 72 -33z m5097 -965 c14 -14 14 -27 0 -27 -18
0 -38 32 -39 61 0 39 14 45 21 9 4 -18 12 -37 18 -43z m-602 -7 c-3 -44 -11
-60 -60 -124 -35 -46 -60 -90 -66 -116 -9 -40 -7 -45 17 -70 25 -24 41 -29
170 -45 78 -11 142 -22 142 -26 0 -14 -61 -89 -81 -99 -49 -27 -262 21 -324
72 l-36 31 25 26 c34 35 33 45 -8 59 -18 7 -46 24 -61 38 l-27 25 38 42 c63
71 252 237 270 237 2 0 2 -23 1 -50z m739 -51 l29 -30 -31 -28 c-23 -21 -47
-30 -90 -36 -32 -4 -68 -11 -81 -16 -44 -17 -27 31 32 88 66 64 96 69 141 22z
m1634 -299 c0 -69 -29 -157 -63 -187 -26 -25 -71 -48 -111 -57 l-29 -7 6 49
c7 61 50 168 80 200 29 32 77 62 100 62 14 0 17 -9 17 -60z m-190 -38 c0 -1
-9 2 -20 8 -11 6 -20 15 -20 20 0 6 9 2 20 -7 11 -10 20 -19 20 -21z m-8038
-172 l33 -30 -42 20 c-23 11 -48 20 -55 20 -9 0 -9 3 2 10 22 14 27 13 62 -20z
m7336 -67 c28 -20 52 -38 52 -41 0 -2 -46 -56 -102 -119 l-102 -115 -33 65
-32 65 30 93 c16 50 37 105 46 120 l17 28 35 -30 c20 -16 60 -46 89 -66z
m-7004 -11 c8 -13 -30 -69 -55 -82 -20 -11 -21 -10 -15 13 14 57 26 77 45 77
11 0 22 -4 25 -8z m7359 -76 c125 -18 231 -37 235 -41 4 -4 6 -37 5 -75 -3
-70 -26 -148 -63 -209 l-21 -33 -157 5 c-115 3 -178 10 -237 26 -82 22 -245
95 -245 111 0 5 44 57 98 115 53 59 101 113 107 121 13 19 16 19 278 -20z
m-6286 -22 c29 -8 33 -23 18 -68 -15 -42 -74 -109 -117 -132 -34 -18 -38 -8
-38 106 0 76 2 89 18 93 26 7 94 7 119 1z m-1583 -63 c-7 -42 -11 -45 -38 -35
-13 5 -11 12 11 45 14 22 28 38 30 36 2 -3 1 -23 -3 -46z m831 -81 c2 -8 16
-69 29 -134 14 -66 29 -123 34 -128 4 -4 116 28 247 72 132 44 243 80 247 80
38 0 -113 -393 -170 -442 -9 -9 -46 -27 -82 -41 -217 -85 -404 -99 -484 -36
l-27 21 27 47 c15 25 65 96 111 157 108 144 112 173 14 89 -62 -53 -121 -95
-170 -119 -32 -17 -34 -17 -57 4 -12 13 -26 34 -29 49 -12 58 41 192 147 368
l49 82 54 -26 c30 -15 57 -34 60 -43z m-128 -437 c-34 -46 -57 -55 -80 -34 -6
6 95 79 111 81 2 0 -12 -21 -31 -47z"/>
<path d="M1627 5313 c-4 -3 -7 -53 -7 -109 0 -72 -5 -116 -16 -144 -17 -42
-14 -58 6 -45 26 16 40 76 40 171 l0 96 28 -6 c46 -12 172 -75 226 -114 28
-20 83 -65 123 -99 69 -60 93 -74 93 -54 0 14 -146 141 -216 188 -77 52 -125
76 -203 102 -75 24 -66 23 -74 14z"/>
<path d="M937 4773 c-12 -11 -8 -53 8 -83 l15 -29 -38 -3 c-29 -2 -37 -7 -37
-23 0 -14 10 -23 33 -31 31 -10 32 -11 15 -26 -10 -8 -26 -18 -36 -21 -26 -10
-16 -31 16 -35 24 -3 27 -8 27 -42 0 -21 5 -51 11 -67 6 -15 12 -39 14 -53 1
-14 5 -35 9 -47 5 -14 3 -23 -3 -23 -18 0 -12 -92 8 -136 23 -50 76 -105 147
-150 59 -38 64 -40 64 -21 0 8 -36 48 -80 90 -77 73 -110 123 -110 166 0 13
33 46 93 96 52 42 104 94 118 115 30 50 63 53 104 10 16 -16 35 -30 42 -30 17
0 17 -1 -8 55 l-21 47 22 30 c18 25 20 32 9 39 -20 13 -25 11 -50 -15 l-23
-24 -32 25 c-18 13 -70 39 -116 57 -121 48 -147 63 -170 102 -22 37 -22 37
-31 27z m67 -101 c3 -5 51 -26 106 -48 113 -44 186 -93 154 -104 -12 -5 -34 4
-64 25 -55 40 -115 70 -155 79 -28 7 -78 56 -56 56 5 0 12 -4 15 -8z m51 -112
c3 -5 -1 -10 -9 -10 -8 0 -18 5 -21 10 -3 6 1 10 9 10 8 0 18 -4 21 -10z m120
-36 c23 -15 23 -18 11 -42 -25 -48 -62 -74 -125 -87 -63 -13 -71 -11 -84 28
-7 18 8 24 18 7 11 -18 61 -11 83 13 12 13 24 39 26 58 3 18 5 35 5 37 3 8 46
-1 66 -14z m-107 -41 c-14 -30 -57 -40 -66 -14 -3 9 1 11 17 6 18 -5 21 -2 21
18 0 14 6 27 13 30 22 8 29 -10 15 -40z m-38 -143 c-16 -12 -28 -16 -35 -9
-12 12 11 29 40 29 18 0 18 -2 -5 -20z"/>
</g>
</svg>
