<svg width="64" height="64" viewBox="0 0 64 64" fill="none" xmlns="http://www.w3.org/2000/svg">
<path d="M38.6666 22.6666C36.5848 22.1269 33.6917 21.3333 31.3725 21.3333C19.9369 21.3333 10.6666 28.4469 10.6666 37.2221C10.6666 42.2647 13.7278 46.7586 18.5019 49.6695L17.2084 53.9357C16.8969 54.9631 17.6659 55.9999 18.7396 55.9999H23.4439C23.7902 55.9999 24.1272 55.8876 24.4043 55.6796L28.1232 52.8887H34.6216L38.3405 55.6796C38.6176 55.8876 38.9546 55.9999 39.301 55.9999H44.0053C45.0789 55.9999 45.848 54.9631 45.5362 53.9357L44.2429 49.6695C47.0872 47.9354 49.3234 45.6391 50.6666 42.9999" stroke="#7E22CE" stroke-width="1.5" stroke-linecap="round" stroke-linejoin="round"/>
<path d="M38.6666 22.6667L50.6666 18.6667L50.4426 28.3422L56 30.6667V40.0001L50.8642 42.6668" stroke="#7E22CE" stroke-width="1.5" stroke-linecap="round" stroke-linejoin="round"/>
<path d="M41.3333 34.6667C40.5971 34.6667 40 34.0696 40 33.3333C40 32.5971 40.5971 32 41.3333 32C42.0696 32 42.6667 32.5971 42.6667 33.3333C42.6667 34.0696 42.0696 34.6667 41.3333 34.6667Z" fill="#7E22CE" stroke="#7E22CE" stroke-width="1.5" stroke-linecap="round" stroke-linejoin="round"/>
<path d="M5.33337 26.6667C5.33337 26.6667 5.33337 33.0667 10.6667 34.6667" stroke="#7E22CE" stroke-width="1.5" stroke-linecap="round" stroke-linejoin="round"/>
<path d="M34.1355 20.6746C34.4795 19.6835 34.6667 18.617 34.6667 17.5059C34.6667 12.2559 30.488 8 25.3333 8C20.1787 8 16 12.2559 16 17.5059C16 20.017 16.956 22.3007 18.5174 24" stroke="#7E22CE" stroke-width="1.5" stroke-linejoin="round"/>
</svg>
